<svg width="47" height="40" viewBox="0 0 47 40" fill="none" xmlns="http://www.w3.org/2000/svg">
<path d="M42.9973 20.7557L33.5856 30.1674L26.3645 37.348L25.5531 38.1187C25.3909 38.281 25.2286 38.4027 25.0663 38.5244C24.9852 38.565 24.904 38.6461 24.904 38.6461L24.4578 38.9707C21.8614 40.5934 18.3726 40.2283 16.1414 37.997L1.25294 22.9463C-0.450916 21.2019 -0.410348 18.4027 1.33408 16.6989L17.2773 1.24244C19.0217 -0.420847 21.7397 -0.420847 23.4436 1.283L26.5673 4.40674L26.689 4.52844L35.1272 12.926L42.9973 20.7557Z" fill="#24C6A1"/>
<path d="M42.997 20.7557L33.5853 30.1674L26.3642 37.348L25.5528 38.1187C25.3906 38.281 25.2283 38.4027 25.066 38.5244C24.9849 38.565 24.9037 38.6461 24.9037 38.6461L24.4575 38.9707C24.6603 38.7273 26.6887 36.2526 24.1329 33.0478L14.2344 22.8652C12.5305 21.1208 12.5711 18.3216 14.3155 16.6177L26.567 4.40674L26.6887 4.52844L35.1269 12.926L42.997 20.7557Z" fill="#0FA47F"/>
<path d="M44.3361 10.4109L41.0907 7.08428L35.7357 1.52648C34.0724 -0.217944 31.2733 -0.258512 29.5288 1.40477L27.5816 3.3926L26.5674 4.4068L26.6891 4.5285L33.7479 11.5468C34.4781 12.277 34.4781 13.4941 33.7479 14.2243L28.7986 19.0113C27.0542 20.7152 27.0136 23.5143 28.758 25.2588L33.6262 30.1675L42.9974 20.7557L44.2956 19.4981C46.7702 16.9829 46.8108 12.9261 44.3361 10.4109Z" fill="#5718FF"/>
</svg>
